<?xml version="1.0" encoding="utf-8"?>
<!-- Generator: Adobe Illustrator 27.8.1, SVG Export Plug-In . SVG Version: 6.00 Build 0)  -->
<svg version="1.1" id="Layer_1" xmlns="http://www.w3.org/2000/svg" xmlns:xlink="http://www.w3.org/1999/xlink" x="0px" y="0px"
	 viewBox="0 0 432 432" style="enable-background:new 0 0 432 432;" xml:space="preserve">
<path d="M357.6,375c-20.5-46-31.7-94.9-33.4-145.5H351v-54h-27V135c0-18.7-15.1-33.7-33.7-33.7s-33.7,15.1-33.7,33.7v27h-39.1
	c2.9-29.7,10.6-58.4,23-85.4C253,49.4,241.1,17.4,214,4.9s-59.2-0.6-71.6,26.5c-18.3,39.8-29.5,82.3-33.1,126.2
	c-0.5,5.9-0.8,10.9-1,15.7c-0.1,0.7-0.1,1.4-0.1,2.2H81v54h26.8c-1.1,51.4-8.6,102.1-22.4,151c-6.1,21.5,6.5,43.9,28,49.9
	c3.7,1,7.4,1.5,11,1.5c17.7,0,34-11.7,38.9-29.6c14.6-51.8,22.9-105.3,25-159.4h55.3c3.2,57.2,16.6,112.6,39.8,165
	c6.7,15.1,21.5,24.1,37,24.1c5.5,0,11.1-1.1,16.4-3.5C357.5,419.4,366.7,395.5,357.6,375z"/>
</svg>
