<?xml version="1.0" encoding="utf-8"?>
<!-- Generator: Adobe Illustrator 27.8.1, SVG Export Plug-In . SVG Version: 6.00 Build 0)  -->
<svg version="1.1" id="Layer_1" xmlns="http://www.w3.org/2000/svg" xmlns:xlink="http://www.w3.org/1999/xlink" x="0px" y="0px"
	 viewBox="0 0 720 720" style="enable-background:new 0 0 720 720;" xml:space="preserve">
<path d="M596,625c-34.2-76.7-52.8-158.2-55.6-242.5H585v-90h-45V225c0-31.1-25.2-56.2-56.2-56.2s-56.2,25.2-56.2,56.2v45h-65.2
	c4.9-49.5,17.7-97.4,38.4-142.4c20.8-45.2,1-98.6-44.2-119.4c-45.2-20.8-98.6-1-119.4,44.2c-30.5,66.4-49.1,137.1-55.1,210.4
	c-0.8,9.8-1.3,18.2-1.6,26.1c-0.1,1.2-0.1,2.4-0.1,3.6H135v90h44.7c-1.9,85.6-14.4,170.1-37.3,251.7c-10.1,35.9,10.8,73.2,46.7,83.2
	c6.1,1.7,12.3,2.5,18.3,2.5c29.5,0,56.6-19.5,64.9-49.3c24.3-86.3,38.2-175.5,41.7-265.7h92.2c5.3,95.4,27.6,187.7,66.4,274.9
	c11.2,25.1,35.9,40.1,61.7,40.1c9.2,0,18.5-1.9,27.4-5.9C595.9,699,611.2,659.1,596,625z"/>
</svg>
