<?xml version="1.0" encoding="UTF-8"?>
<svg id="Layer_1" xmlns="http://www.w3.org/2000/svg" version="1.1" xmlns:xlink="http://www.w3.org/1999/xlink" viewBox="0 0 432 432">
  <!-- Generator: Adobe Illustrator 29.3.1, SVG Export Plug-In . SVG Version: 2.1.0 Build 151)  -->
  <path d="M216,36c-99.4,0-180,80.6-180,180s80.6,180,180,180,180-80.6,180-180S315.4,36,216,36ZM216,63c29.8,0,54,24.2,54,54s-24.2,54-54,54-54-24.2-54-54,24.2-54,54-54ZM234,216c0,9.9-8.1,18-18,18s-18-8.1-18-18,8.1-18,18-18,18,8.1,18,18ZM117,270c-29.8,0-54-24.2-54-54s24.2-54,54-54,54,24.2,54,54-24.2,54-54,54ZM216,369c-29.8,0-54-24.2-54-54s24.2-54,54-54,54,24.2,54,54-24.2,54-54,54ZM315,270c-29.8,0-54-24.2-54-54s24.2-54,54-54,54,24.2,54,54-24.2,54-54,54Z"/>
</svg>