<?xml version="1.0" encoding="utf-8"?>
<!-- Generator: Adobe Illustrator 27.8.1, SVG Export Plug-In . SVG Version: 6.00 Build 0)  -->
<svg version="1.1" id="Layer_1" xmlns="http://www.w3.org/2000/svg" xmlns:xlink="http://www.w3.org/1999/xlink" x="0px" y="0px"
	 viewBox="0 0 720 720" style="enable-background:new 0 0 720 720;" xml:space="preserve">
<g>
	<g>
		<path d="M270,405c-49.7,0-90-40.3-90-90c0-91.5,19.2-179.9,57.2-262.5c20.7-45.2,74.2-65,119.3-44.2c45.2,20.7,65,74.2,44.2,119.3
			c-27.1,59-40.8,122-40.8,187.4C360,364.7,319.7,405,270,405z"/>
	</g>
	<g>
		<path d="M534.4,720c-25.8,0-50.5-14.9-61.7-40.1C427.8,579,405,471.3,405,360c0-37.3,30.2-67.5,67.5-67.5S540,322.7,540,360
			c0,92.3,18.9,181.5,56.1,265c15.2,34.1-0.2,74-34.2,89.1C552.9,718.1,543.6,720,534.4,720z"/>
	</g>
	<g>
		<path d="M207.4,720c-6,0-12.2-0.8-18.3-2.5c-35.9-10.1-56.8-47.4-46.7-83.2c24.9-88.7,37.6-181,37.6-274.2
			c0-37.3,30.2-67.5,67.5-67.5S315,322.7,315,360c0,105.6-14.3,210.1-42.6,310.7C264,700.5,236.9,720,207.4,720z"/>
	</g>
	<rect x="135" y="292.5" width="450" height="90"/>
	<rect x="225" y="247.5" width="270" height="180"/>
	<path d="M405,225c0-37.3,30.2-67.5,67.5-67.5S540,187.7,540,225v90H405V225z"/>
</g>
</svg>
